<svg class="site__logo" version="1.1" xmlns="http://www.w3.org/2000/svg"  x="0px"
	 y="0px" width="100" height="56" viewBox="0 0 66 37.5" xml:space="preserve">
<path d="M63.9,20.9c-1.4-1.7-3.3-2.8-5.6-3.3c2-0.5,3.6-1.5,4.7-3c1.2-1.5,1.7-3.2,1.7-5.1c0-1.9-0.6-3.6-1.7-5
	c-1.1-1.4-2.8-2.5-4.8-3.3C56.1,0.4,53.7,0,50.9,0L32.8,0L0,37.2l10.2-0.1l5.5-6.5l17.4-0.1v6.9h18.5c2.9,0,5.5-0.4,7.6-1.3
	c2.2-0.8,3.8-2,5-3.6c1.2-1.6,1.8-3.4,1.8-5.5C66,24.6,65.3,22.6,63.9,20.9z M42.9,7.7h7.5c1.4,0,2.4,0.3,3.2,0.9
	c0.8,0.6,1.2,1.5,1.2,2.6c0,1.2-0.4,2.1-1.2,2.8c-0.8,0.7-1.9,1-3.2,1h-7.5V7.7z M32.6,23.2l-10.7,0.1L33.1,10v1L32.6,23.2z
	 M54.4,28.8c-1,0.7-2.4,1.1-4.1,1.1h-7.5V22h7.5c1.7,0,3.1,0.3,4.1,1c1,0.7,1.5,1.6,1.5,2.8C55.9,27.1,55.4,28.1,54.4,28.8z"/>
</svg>
